HIERARCHY
ROOT hip
{
  OFFSET 0 0 0
  CHANNELS 6 Xposition Yposition Zposition Zrotation Yrotation Xrotation
  JOINT abdomen
  {
    OFFSET 0 20.6881 -0.73152
    CHANNELS 3 Zrotation Xrotation Yrotation
    JOINT chest
    {
      OFFSET 0 11.7043 -0.48768
      CHANNELS 3 Zrotation Xrotation Yrotation
      JOINT neck
      {
        OFFSET 0 22.1894 -2.19456
        CHANNELS 3 Zrotation Xrotation Yrotation
        JOINT head
        {
          OFFSET -0.24384 7.07133 1.2192
          CHANNELS 3 Zrotation Xrotation Yrotation
          JOINT leftEye
          {
            OFFSET 4.14528 8.04674 8.04672
            CHANNELS 3 Zrotation Xrotation Yrotation
            End Site
            {
              OFFSET 1 0 0
            }
          }
          JOINT rightEye
          {
            OFFSET -3.6576 8.04674 8.04672
            CHANNELS 3 Zrotation Xrotation Yrotation
            End Site
            {
              OFFSET 1 0 0
            }
          }
        }
      }
      JOINT rCollar
      {
        OFFSET -2.68224 19.2634 -4.8768
        CHANNELS 3 Zrotation Xrotation Yrotation
        JOINT rShldr
        {
          OFFSET -8.77824 -1.95073 1.46304
          CHANNELS 3 Zrotation Xrotation Yrotation
          JOINT rForeArm
          {
            OFFSET -28.1742 -1.7115 0.48768
            CHANNELS 3 Zrotation Xrotation Yrotation
            JOINT rHand
            {
              OFFSET -22.5879 0.773209 7.07136
              CHANNELS 3 Zrotation Xrotation Yrotation
              JOINT rThumb1
              {
                OFFSET -1.2192 -0.487915 3.41376
                CHANNELS 3 Zrotation Xrotation Yrotation
                JOINT rThumb2
                {
                  OFFSET -3.37035 -0.52449 3.41376
                  CHANNELS 3 Zrotation Xrotation Yrotation
                  End Site
                  {
                    OFFSET -1.78271 -1.18214 1.43049
                  }
                }
              }
              JOINT rIndex1
              {
                OFFSET -7.75947 0.938293 5.60832
                CHANNELS 3 Zrotation Xrotation Yrotation
                JOINT rIndex2
                {
                  OFFSET -2.54057 -0.884171 1.56538
                  CHANNELS 3 Zrotation Xrotation Yrotation
                  End Site
                  {
                    OFFSET -1.62519 -0.234802 1.16502
                  }
                }
              }
              JOINT rMid1
              {
                OFFSET -8.24714 1.18213 3.41376
                CHANNELS 3 Zrotation Xrotation Yrotation
                JOINT rMid2
                {
                  OFFSET -3.10165 -0.590103 1.0647
                  CHANNELS 3 Zrotation Xrotation Yrotation
                  End Site
                  {
                    OFFSET -2.48547 -0.328903 0.83742
                  }
                }
              }
              JOINT rRing1
              {
                OFFSET -8.82822 0.546677 1.51678
                CHANNELS 3 Zrotation Xrotation Yrotation
                JOINT rRing2
                {
                  OFFSET -2.60934 -0.819778 -0.0198488
                  CHANNELS 3 Zrotation Xrotation Yrotation
                  End Site
                  {
                    OFFSET -2.33842 -0.294052 0.168128
                  }
                }
              }
              JOINT rPinky1
              {
                OFFSET -8.27202 -0.0477905 -0.4584
                CHANNELS 3 Zrotation Xrotation Yrotation
                JOINT rPinky2
                {
                  OFFSET -1.82734 -0.647385 -0.700984
                  CHANNELS 3 Zrotation Xrotation Yrotation
                  End Site
                  {
                    OFFSET -1.69225 -0.51767 -0.607171
                  }
                }
              }
            }
          }
        }
      }
      JOINT lCollar
      {
        OFFSET 2.68224 19.2634 -4.8768
        CHANNELS 3 Zrotation Xrotation Yrotation
        JOINT lShldr
        {
          OFFSET 8.77824 -1.95073 1.46304
          CHANNELS 3 Zrotation Xrotation Yrotation
          JOINT lForeArm
          {
            OFFSET 28.1742 -1.7115 0.48768
            CHANNELS 3 Zrotation Xrotation Yrotation
            JOINT lHand
            {
              OFFSET 22.5879 0.773209 7.07136
              CHANNELS 3 Zrotation Xrotation Yrotation
              JOINT lThumb1
              {
                OFFSET 1.2192 -0.487915 3.41376
                CHANNELS 3 Zrotation Xrotation Yrotation
                JOINT lThumb2
                {
                  OFFSET 3.37035 -0.52449 3.41376
                  CHANNELS 3 Zrotation Xrotation Yrotation
                  End Site
                  {
                    OFFSET 1.78271 -1.18214 1.43049
                  }
                }
              }
              JOINT lIndex1
              {
                OFFSET 7.75947 0.938293 5.60832
                CHANNELS 3 Zrotation Xrotation Yrotation
                JOINT lIndex2
                {
                  OFFSET 2.54057 -0.884171 1.56538
                  CHANNELS 3 Zrotation Xrotation Yrotation
                  End Site
                  {
                    OFFSET 1.62519 -0.234802 1.16502
                  }
                }
              }
              JOINT lMid1
              {
                OFFSET 8.24714 1.18213 3.41376
                CHANNELS 3 Zrotation Xrotation Yrotation
                JOINT lMid2
                {
                  OFFSET 3.10165 -0.590103 1.0647
                  CHANNELS 3 Zrotation Xrotation Yrotation
                  End Site
                  {
                    OFFSET 2.48547 -0.328903 0.83742
                  }
                }
              }
              JOINT lRing1
              {
                OFFSET 8.82822 0.546677 1.51678
                CHANNELS 3 Zrotation Xrotation Yrotation
                JOINT lRing2
                {
                  OFFSET 2.60934 -0.819778 -0.0198488
                  CHANNELS 3 Zrotation Xrotation Yrotation
                  End Site
                  {
                    OFFSET 2.33842 -0.294052 0.168128
                  }
                }
              }
              JOINT lPinky1
              {
                OFFSET 8.27202 -0.0477905 -0.4584
                CHANNELS 3 Zrotation Xrotation Yrotation
                JOINT lPinky2
                {
                  OFFSET 1.82734 -0.647385 -0.700984
                  CHANNELS 3 Zrotation Xrotation Yrotation
                  End Site
                  {
                    OFFSET 1.69225 -0.51767 -0.607171
                  }
                }
              }
            }
          }
        }
      }
    }
  }
  JOINT rButtock
  {
    OFFSET -8.77824 4.35084 1.2192
    CHANNELS 3 Zrotation Xrotation Yrotation
    JOINT rThigh
    {
      OFFSET 0 -1.70687 -2.19456
      CHANNELS 3 Zrotation Xrotation Yrotation
      JOINT rShin
      {
        OFFSET 0 -36.8199 0.73152
        CHANNELS 3 Zrotation Xrotation Yrotation
        JOINT rFoot
        {
          OFFSET 0.73152 -45.1104 -5.12064
          CHANNELS 3 Zrotation Xrotation Yrotation
          End Site
          {
            OFFSET -1.1221 -3.69964 12.103
          }
        }
      }
    }
  }
  JOINT lButtock
  {
    OFFSET 8.77824 4.35084 1.2192
    CHANNELS 3 Zrotation Xrotation Yrotation
    JOINT lThigh
    {
      OFFSET 0 -1.70687 -2.19456
      CHANNELS 3 Zrotation Xrotation Yrotation
      JOINT lShin
      {
        OFFSET 0 -36.8199 0.73152
        CHANNELS 3 Zrotation Xrotation Yrotation
        JOINT lFoot
        {
          OFFSET -0.73152 -45.1104 -5.12064
          CHANNELS 3 Zrotation Xrotation Yrotation
          End Site
          {
            OFFSET 1.1221 -3.69964 12.103
          }
        }
      }
    }
  }
}
MOTION
Frames:	4
Frame Time:	0.00833333
0.0 0.0 0.0 0.0 0.0 0.0 0.0 0.0 0.0 0.0 0.0 0.0 0.0 0.0 0.0 0.0 0.0 0.0 0.0 0.0 0.0 0.0 0.0 0.0 0.0 0.0 0.0 0.0 0.0 0.0 0.0 0.0 0.0 0.0 0.0 0.0 0.0 0.0 0.0 0.0 0.0 0.0 0.0 0.0 0.0 0.0 0.0 0.0 0.0 0.0 0.0 0.0 0.0 0.0 0.0 0.0 0.0 0.0 0.0 0.0 0.0 0.0 0.0 0.0 0.0 0.0 0.0 0.0 0.0 0.0 0.0 0.0 0.0 0.0 0.0 0.0 0.0 0.0 0.0 0.0 0.0 0.0 0.0 0.0 0.0 0.0 0.0 0.0 0.0 0.0 0.0 0.0 0.0 0.0 0.0 0.0 0.0 0.0 0.0 0.0 0.0 0.0 0.0 0.0 0.0 0.0 0.0 0.0 0.0 0.0 0.0 0.0 0.0 0.0 0.0 0.0 0.0 0.0 0.0 0.0 0.0 0.0 0.0 0.0 0.0 0.0 0.0 0.0 0.0 0.0 0.0 0.0
-3.2196000000000002 80.9452 -196.2885 -9.489641 -18.607182 8.157406 -1.754918 0.5943 59.305334 0.621115 -1.901586 -57.332458 -8.113158 21.567911 -119.593106 14.954782 19.735522 109.688805 -0.003281 -0.0 0.000544 0.002391 0.0 0.000883 -157.796916 -22.11543 165.467504 -154.997411 62.229622 152.590591 73.155859 -57.514341 40.340866 -166.004599 46.713459 139.44904 -0.441756 0.435263 0.068691 -37.288734 26.045283 33.565012 -153.478651 -21.110799 121.751762 -61.903611 57.396214 46.191533 -151.476722 17.84175 137.538835 -163.15576 -4.657294 142.97246 -71.92667 72.974625 89.771559 -77.295704 -82.498543 -94.420153 25.917806 79.093984 10.830414 -149.04815 13.53795 -143.192741 50.90479 -86.504112 72.595934 -1.902918 0.103794 4.176464 28.607727 82.934583 -37.238863 2.938119 16.165223 -0.796223 1.50855 1.483532 -0.249695 110.785126 1.486694 -100.72492 46.208941 39.652719 -36.318254 -6.731882 0.010312 2.549129 169.090628 -33.247492 -145.37339 -3.341799 -0.632967 -0.257995 -0.000664 0.022456 -0.00818 156.336853 -46.645806 -177.614874 138.444527 -6.231529 135.66149 -1.679258 -2.448907 2.695609 179.998598 75.750944 -0.0 -177.325394 68.136982 177.118457 -6.992548 -21.294684 -53.805599 -103.079828 -20.83658 172.530229 -179.994099 75.749232 -0.006088 -173.637267 55.106031 172.257994 -1.173993 -20.087243 -165.475588 26.63584 -6.706631 -20.957506
-3.2147 80.94839999999999 -196.2745 -9.462585 -18.568008 8.093169 -0.011743 0.893444 98.382287 -0.94265 -2.680937 -94.25171 8.197965 17.886623 86.508895 -20.572914 4.605174 -106.133985 0.004974 0.0 0.002281 -0.000734 -0.0 0.002076 -142.973815 39.431618 147.39002 -59.076282 45.292904 49.973831 -68.507248 -57.3318 -110.373081 101.621912 -69.661385 85.913045 16.893467 -16.714023 -0.116868 -130.299825 -14.260413 117.094495 -152.315016 -18.947879 121.430583 -9.009589 33.195841 0.962334 -129.361935 47.296021 118.698993 -161.067825 1.248351 142.332602 -0.00207 -0.060916 -0.018613 10.749564 -6.4445 -0.85653 -136.27842 -10.95675 -133.618838 -147.914408 14.129315 -142.359835 158.92069 -37.397 -168.2821 -163.546405 8.235823 174.229845 179.552047 42.147523 -134.560898 -160.867348 -29.298628 -141.72621 -2.462882 -2.44595 0.327023 -23.990519 -42.768149 18.166268 -12.215895 -21.784909 5.119802 158.759006 -13.384241 -110.862603 -0.046975 -0.138571 0.028028 163.990692 -6.976919 -143.566679 145.120403 0.226835 179.199082 156.514051 15.309393 -178.979388 25.5161 -38.0728 24.57541 -7.723371 13.670292 -3.326931 -2.6e-05 0.000891 -3.9e-05 2.661443 -8.951393 16.633491 11.515629 19.940839 20.80979 103.609144 -75.873371 11.190375 -179.995451 75.750462 -0.003112 -167.664813 44.676407 -17.276732 -11.044994 32.129599 -73.502936 36.331946 65.000389 40.242259
-3.2072999999999996 80.9507 -196.2615 -9.43486 -18.504012 8.038622 4.088081 5.283176 -0.0 1.008369 -4.734175 6.125573 -13.95632 25.792364 -82.422423 31.022671 11.540394 52.592472 -0.001582 0.0 -0.000934 -0.001854 -0.0 0.003249 -0.273491 1.606765 0.361089 -52.334067 69.10902 116.505203 140.510126 77.540579 153.563712 169.796841 -16.413811 144.116582 -164.698963 -2.371862 89.584642 -171.168485 -10.48837 86.88224 29.101405 -49.273764 -4.261756 7.773274 12.595721 -0.546744 2.099618 -6.305481 -1.081723 6.643673 -10.505402 -1.09835 -71.925203 72.973685 89.772063 4.972351 29.769516 -0.411677 1.133675 3.040616 1.044619 -146.96717 10.281917 -143.360492 152.689037 11.677301 -158.229584 63.846888 36.33048 -26.926902 -170.122115 61.450117 151.468993 12.960451 52.137133 -6.086124 12.926201 12.051712 -3.309742 -3.674459 -2.387887 -5.229797 138.763509 4.487473 -115.031665 170.16056 -28.087336 -118.153826 154.141408 11.634766 -139.42986 -3.048053 0.707471 -0.441756 74.840548 72.959949 -92.828371 -3.00231 46.747273 -2.92267 137.596806 -8.131528 134.867195 14.080954 -29.906766 16.490308 0.000188 -0.000614 0.0 4.740053 -12.095906 1.087723 7.691719 43.531524 144.103991 65.120996 27.476744 178.383914 -179.999812 75.750256 -0.0 -165.426344 33.095851 -38.263197 -12.280652 43.058495 100.752427 -84.85663 57.421723 0.024772
